<?xml version="1.0" standalone="no"?>
<!DOCTYPE svg PUBLIC "-//W3C//DTD SVG 20010904//EN"
 "http://www.w3.org/TR/2001/REC-SVG-20010904/DTD/svg10.dtd">
<svg version="1.0" xmlns="http://www.w3.org/2000/svg"
 width="759.000000pt" height="427.000000pt" viewBox="0 0 759.000000 427.000000"
 preserveAspectRatio="xMidYMid meet">
<metadata>
Created by potrace 1.15, written by Peter Selinger 2001-2017
</metadata>
<g transform="translate(0.000000,427.000000) scale(0.100000,-0.100000)"
fill="#000000" stroke="none">
<path d="M0 2135 l0 -2135 3795 0 3795 0 0 2135 0 2135 -3795 0 -3795 0 0
-2135z m7368 1799 c29 -19 55 -79 48 -109 -3 -12 -15 -33 -26 -48 -81 -103
-236 4 -176 122 29 56 98 71 154 35z m-3688 -44 c0 -47 1 -50 19 -40 27 14 63
13 84 -3 23 -16 33 -79 17 -116 -15 -36 -64 -60 -90 -43 -10 6 -27 8 -39 5
-21 -5 -21 -3 -21 114 0 66 3 123 7 126 16 17 23 3 23 -43z m-1030 -49 c5 -11
10 -50 10 -86 0 -57 -2 -66 -17 -64 -10 1 -30 -1 -45 -5 -37 -11 -68 8 -68 41
0 35 27 63 61 63 33 0 45 15 28 36 -12 15 -24 15 -61 -1 -13 -5 -18 -2 -18 8
0 19 15 25 62 26 27 1 40 -4 48 -18z m356 11 c15 -10 34 -47 34 -66 0 -13 -12
-16 -60 -16 -64 0 -73 -9 -47 -45 11 -15 22 -17 55 -11 47 7 58 -8 16 -24 -40
-16 -63 -12 -89 15 -52 51 -19 155 48 155 18 0 37 -4 43 -8z m497 -10 c9 -10
18 -29 19 -43 3 -23 0 -24 -54 -27 -48 -2 -58 -6 -58 -21 0 -29 26 -44 65 -38
40 7 51 -16 13 -27 -41 -10 -58 -6 -83 19 -33 32 -35 98 -3 132 26 28 78 31
101 5z m478 0 c18 -15 22 -29 22 -67 0 -40 -4 -52 -27 -72 -15 -12 -36 -23
-47 -23 -28 0 -75 26 -83 45 -12 33 -6 83 15 109 25 32 84 36 120 8z m819 -2
c25 -25 27 -95 5 -127 -19 -27 -75 -39 -104 -24 -47 26 -59 106 -20 147 29 31
90 33 119 4z m-3517 -1414 c161 -51 302 -185 359 -341 26 -73 35 -226 18 -308
-39 -190 -205 -362 -396 -411 -192 -49 -388 5 -530 148 -81 81 -126 164 -149
271 -18 88 -18 132 0 220 44 208 206 378 411 430 71 18 216 13 287 -9z m1332
-2 c231 -56 405 -282 405 -526 0 -157 -51 -279 -165 -394 -216 -217 -552 -217
-770 1 -82 82 -118 144 -145 251 -60 234 33 469 238 602 126 82 278 104 437
66z m4032 -7 c182 -63 317 -219 358 -413 18 -87 18 -121 0 -209 -44 -210 -198
-373 -401 -425 -337 -86 -663 151 -682 495 -6 114 9 184 59 284 75 150 226
261 399 295 61 11 196 -2 267 -27z m-2707 8 c96 -25 179 -74 249 -144 111
-111 161 -234 161 -396 0 -154 -60 -287 -178 -397 -251 -232 -643 -179 -831
112 -138 214 -106 499 78 680 71 71 156 121 242 144 70 19 210 20 279 1z
m1331 -11 c98 -29 171 -73 244 -148 87 -89 129 -169 150 -292 14 -79 14 -99 1
-173 -48 -271 -270 -461 -542 -461 -308 0 -560 268 -541 575 14 236 177 440
400 500 72 19 221 19 288 -1z"/>
<path d="M7248 3917 c-48 -44 -45 -108 6 -149 55 -45 146 3 146 77 0 79 -96
124 -152 72z"/>
<path d="M959 2366 c-153 -54 -273 -184 -315 -341 -18 -65 -18 -186 0 -251 50
-187 219 -337 412 -364 316 -44 598 236 554 551 -5 34 -11 63 -14 66 -7 7
-175 -117 -186 -138 -6 -10 -10 -36 -10 -58 0 -41 -31 -121 -54 -140 -19 -16
-166 -62 -184 -58 -12 2 -6 8 18 19 57 25 80 58 85 120 4 46 1 59 -15 73 -19
18 -21 17 -46 -11 l-26 -29 5 28 c2 15 0 27 -4 27 -5 0 -9 -15 -9 -33 0 -18
-7 -42 -15 -53 -23 -30 -18 -40 8 -16 13 12 27 19 31 15 5 -5 6 1 2 13 -9 28
30 66 44 44 6 -8 10 -36 10 -62 0 -54 -19 -80 -76 -104 -54 -23 -101 -18 -120
11 -16 25 -16 41 2 175 4 31 3 32 -6 12 -5 -13 -13 -55 -16 -93 -7 -72 -18
-84 -48 -53 -22 22 -19 63 19 219 5 17 4 27 0 22 -5 -4 -18 -50 -30 -103 -20
-90 -22 -95 -38 -79 -21 21 -22 73 -1 171 8 42 13 78 11 81 -6 5 -37 -127 -37
-156 0 -24 -28 -29 -36 -7 -7 19 15 163 31 202 9 22 25 36 54 48 61 24 217 48
262 41 36 -6 42 -3 118 61 45 37 81 71 81 75 0 13 -102 66 -159 83 -84 25
-221 21 -302 -8z"/>
<path d="M2359 2379 c-43 -10 -136 -51 -162 -71 -17 -13 -16 -15 13 -45 18
-18 55 -43 83 -57 29 -13 95 -45 147 -69 136 -65 288 -196 278 -242 -2 -13
-18 -5 -73 35 -38 29 -82 64 -97 78 -15 14 -30 23 -33 20 -8 -8 89 -92 157
-136 55 -35 71 -62 47 -77 -13 -8 -102 45 -180 107 -32 27 -59 44 -59 38 0
-14 103 -94 178 -137 34 -21 62 -42 62 -48 0 -33 -67 -48 -89 -21 -20 24 -182
138 -188 133 -2 -3 30 -31 74 -63 115 -84 124 -93 112 -115 -17 -32 -62 -23
-131 26 -63 44 -149 103 -178 120 -11 7 -9 1 4 -20 44 -67 68 -116 62 -130
-14 -38 -37 -26 -122 61 -74 78 -87 97 -104 154 -16 55 -29 75 -79 124 l-60
60 -15 -36 c-27 -63 -37 -160 -26 -240 38 -271 293 -462 562 -420 191 29 355
175 403 357 31 119 14 264 -43 369 -37 69 -135 165 -202 198 -106 52 -241 71
-341 47z"/>
<path d="M6336 2379 c-119 -28 -253 -140 -310 -259 -93 -193 -59 -411 87 -560
74 -77 262 -172 243 -125 -3 9 -6 41 -6 70 0 49 -3 58 -38 92 -21 21 -59 66
-85 99 -26 34 -66 76 -88 94 -32 25 -38 34 -28 46 20 25 64 16 125 -26 61 -42
87 -49 101 -27 4 6 8 97 8 201 0 168 2 190 17 200 28 17 35 0 51 -129 11 -90
12 -124 3 -134 -9 -12 -8 -13 7 -8 10 4 24 7 30 7 9 0 9 2 1 8 -13 8 -49 264
-41 286 7 18 42 22 52 6 4 -6 15 -74 26 -152 10 -77 21 -143 24 -146 9 -10 16
5 61 124 49 132 56 144 82 128 29 -19 24 -56 -21 -167 -38 -92 -43 -108 -30
-119 12 -10 14 -9 12 3 -5 23 64 199 79 199 23 0 24 -29 2 -122 -11 -51 -25
-138 -29 -194 -9 -100 -17 -127 -52 -173 -15 -18 -19 -41 -19 -98 0 -86 -2
-85 102 -31 176 93 284 312 249 507 -34 191 -175 349 -355 397 -57 15 -200 17
-260 3z"/>
<path d="M3700 2380 c-76 -16 -187 -77 -244 -135 -194 -197 -193 -506 2 -701
230 -230 635 -164 781 127 l32 64 -62 3 c-60 3 -63 2 -103 -36 -52 -50 -75
-62 -121 -62 -35 0 -36 0 -21 22 22 31 20 65 -4 80 -11 7 -20 21 -20 31 0 28
-22 30 -158 13 -128 -16 -287 -21 -316 -10 -9 3 -16 17 -16 29 0 28 2 28 190
51 74 9 137 17 139 19 15 15 -26 44 -139 97 -86 40 -132 67 -136 80 -13 41 11
40 162 -8 l149 -47 1 -36 c1 -50 30 -111 53 -111 27 0 51 32 59 81 9 55 27 49
23 -8 -2 -34 3 -47 23 -68 14 -14 30 -25 37 -25 6 0 0 9 -15 21 -23 18 -26 28
-26 80 0 56 -1 59 -25 59 -20 0 -25 -6 -30 -37 -7 -44 -25 -85 -41 -90 -13 -4
-44 71 -44 105 0 40 29 80 75 108 55 32 72 29 159 -26 59 -38 68 -40 140 -40
89 0 88 -4 35 106 -53 112 -149 197 -274 243 -67 25 -195 35 -265 21z m219
-599 c20 -13 4 -31 -57 -64 -71 -38 -120 -44 -155 -17 -15 12 -27 30 -27 39 0
16 16 21 108 33 59 9 109 16 112 16 3 1 11 -2 19 -7z"/>
<path d="M5003 2365 c-117 -32 -228 -113 -294 -216 -93 -145 -97 -353 -9 -506
30 -53 133 -163 152 -163 12 0 4 94 -17 205 -8 47 -10 88 -4 125 15 103 47
252 56 261 20 20 227 119 249 119 12 0 62 -19 111 -43 48 -24 107 -50 131 -60
23 -9 42 -22 42 -28 0 -7 -7 -8 -17 -4 -48 20 -220 87 -236 92 -16 5 -192 -55
-184 -64 2 -1 42 10 88 26 80 28 86 28 119 14 19 -9 72 -30 117 -47 45 -18 85
-35 88 -38 4 -3 2 -16 -5 -27 -13 -25 -40 -26 -125 -6 -78 19 -135 19 -185 -1
-49 -20 -54 -52 -12 -84 33 -27 90 -22 145 10 80 47 159 2 83 -47 -19 -12 -78
-62 -131 -110 l-97 -88 5 -125 c3 -69 8 -133 12 -142 6 -14 19 -18 65 -18 166
0 335 111 415 273 92 187 59 396 -86 551 -122 131 -309 186 -476 141z"/>
</g>
</svg>
